<?xml version="1.0" encoding="utf-8"?>
<!-- Generator: Adobe Illustrator 23.0.1, SVG Export Plug-In . SVG Version: 6.00 Build 0)  -->
<svg version="1.1" id="Слой_1" xmlns="http://www.w3.org/2000/svg" xmlns:xlink="http://www.w3.org/1999/xlink" x="0px" y="0px"
	 viewBox="0 0 88 19" style="enable-background:new 0 0 88 19;" xml:space="preserve">
<style type="text/css">
	.st0{fill:#F8F8F8;}
</style>
<g>
	<path class="st0" d="M27.8,6.3h-1.1V9h1.1c0.5,0,0.9-0.1,1.2-0.3c0.3-0.2,0.4-0.6,0.4-1c0-0.5-0.1-0.8-0.4-1
		C28.7,6.4,28.3,6.3,27.8,6.3z"/>
	<path class="st0" d="M76.6,9c-0.2-0.1-0.4-0.2-0.7-0.2c-0.3,0-0.6,0.1-0.8,0.2c-0.2,0.2-0.4,0.4-0.5,0.6c-0.1,0.1-0.1,0.3-0.1,0.5
		h2.9c0-0.2-0.1-0.4-0.2-0.6C77,9.3,76.8,9.1,76.6,9z"/>
	<path class="st0" d="M70,9.4c-0.1-0.2-0.3-0.3-0.5-0.3C69.4,9,69.2,9,69,9c-0.3,0-0.6,0.1-0.8,0.2s-0.4,0.3-0.6,0.6
		c-0.1,0.3-0.2,0.6-0.2,0.9s0.1,0.7,0.2,0.9c0.2,0.3,0.4,0.5,0.6,0.6c0.3,0.1,0.5,0.2,0.8,0.2c0.3,0,0.5-0.1,0.8-0.2
		c0.2-0.1,0.4-0.3,0.6-0.6c0.2-0.3,0.2-0.6,0.2-0.9c0-0.3,0-0.5-0.1-0.7C70.3,9.7,70.2,9.5,70,9.4z"/>
	<path class="st0" d="M46.4,9c-0.2-0.1-0.4-0.2-0.7-0.2c-0.3,0-0.6,0.1-0.8,0.2c-0.2,0.2-0.4,0.4-0.5,0.6c-0.1,0.1-0.1,0.3-0.1,0.5
		H47c0-0.2-0.1-0.4-0.2-0.6C46.8,9.3,46.6,9.1,46.4,9z"/>
	<path class="st0" d="M33.7,10.9c-0.3,0-0.5,0-0.7,0.1c-0.2,0.1-0.3,0.2-0.4,0.3c-0.1,0.1-0.1,0.3-0.1,0.5s0,0.3,0.1,0.5
		c0.1,0.1,0.2,0.2,0.4,0.3c0.2,0.1,0.3,0.1,0.5,0.1c0.3,0,0.5,0,0.7-0.2c0.2-0.1,0.4-0.3,0.5-0.5c0.1-0.2,0.2-0.4,0.2-0.7v-0.1
		c-0.1-0.1-0.3-0.1-0.4-0.2C34.3,11,34,10.9,33.7,10.9z"/>
	<path class="st0" d="M12.6,9.1C12.4,9,12.1,9,11.8,9c-0.3,0-0.5,0.1-0.8,0.2c-0.2,0.1-0.4,0.3-0.6,0.6c-0.2,0.3-0.2,0.6-0.2,1
		c0,0.4,0.1,0.7,0.2,1c0.2,0.3,0.4,0.5,0.6,0.6s0.5,0.2,0.8,0.2c0.3,0,0.6-0.1,0.8-0.2c0.3-0.1,0.5-0.3,0.6-0.6
		c0.2-0.3,0.2-0.6,0.2-0.9c0-0.4-0.1-0.7-0.2-1C13.1,9.5,12.9,9.3,12.6,9.1z"/>
	<path class="st0" d="M0,0v19h88V0H0z M83.3,5.2C83.5,5,83.7,5,83.9,5c0.2,0,0.4,0.1,0.6,0.2c0.2,0.2,0.2,0.3,0.2,0.6
		c0,0.2-0.1,0.4-0.2,0.5c-0.2,0.2-0.4,0.2-0.6,0.2c-0.2,0-0.4-0.1-0.6-0.2c-0.2-0.1-0.2-0.3-0.2-0.5C83.1,5.5,83.2,5.3,83.3,5.2z
		 M84.6,7.9v5.5h-1.3V7.9H84.6z M79.1,7.9h0.9V6h1.3v1.9h0.9v1.1h-0.9v4.4h-1.3V9.1h-0.9V7.9z M73.4,9.2c0.2-0.4,0.6-0.8,1-1
		c0.4-0.2,0.9-0.4,1.5-0.4c0.6,0,1.1,0.1,1.5,0.3c0.4,0.2,0.7,0.5,0.9,1c0.2,0.4,0.3,0.9,0.3,1.5v0.2c0,0.1,0,0.1,0,0.2h-4.3
		c0,0.3,0.1,0.5,0.2,0.7c0.1,0.3,0.3,0.5,0.5,0.6c0.2,0.1,0.5,0.2,0.9,0.2c0.4,0,0.7-0.1,0.9-0.2c0.3-0.1,0.5-0.4,0.6-0.7l1.1,0.4
		c-0.3,0.5-0.7,0.9-1.1,1.1c-0.5,0.3-1,0.4-1.6,0.4c-0.6,0-1-0.1-1.5-0.4c-0.4-0.2-0.8-0.6-1-1c-0.2-0.4-0.3-0.9-0.3-1.5
		S73.1,9.6,73.4,9.2z M66.3,9.1c0.3-0.4,0.6-0.7,1-1c0.4-0.2,0.9-0.3,1.3-0.3c0.5,0,0.9,0.1,1.2,0.3c0.3,0.2,0.5,0.4,0.7,0.7V7.9
		h1.3v5.4c0,0.7-0.1,1.2-0.4,1.6c-0.3,0.4-0.6,0.8-1,1c-0.4,0.2-0.9,0.3-1.4,0.3c-0.6,0-1.1-0.1-1.5-0.3c-0.4-0.2-0.8-0.5-1-0.9
		c-0.2-0.4-0.4-0.8-0.4-1.3h1.3c0,0.3,0.1,0.5,0.2,0.7c0.1,0.2,0.3,0.3,0.5,0.5c0.2,0.1,0.5,0.2,0.8,0.2c0.3,0,0.5-0.1,0.8-0.2
		c0.3-0.1,0.4-0.3,0.6-0.6c0.2-0.3,0.2-0.6,0.2-1v-0.8c-0.2,0.3-0.4,0.5-0.7,0.7c-0.4,0.2-0.8,0.3-1.2,0.3c-0.5,0-0.9-0.1-1.3-0.3
		c-0.4-0.2-0.7-0.5-1-1c-0.2-0.4-0.4-0.9-0.4-1.5C66,10.1,66.1,9.5,66.3,9.1z M63.4,5.2C63.6,5,63.8,5,64,5c0.2,0,0.4,0.1,0.6,0.2
		c0.2,0.2,0.2,0.3,0.2,0.6c0,0.2-0.1,0.4-0.2,0.5c-0.2,0.2-0.3,0.2-0.6,0.2c-0.2,0-0.4-0.1-0.6-0.2c-0.2-0.1-0.3-0.3-0.3-0.5
		C63.2,5.5,63.2,5.3,63.4,5.2z M64.6,7.9v5.5h-1.3V7.9H64.6z M60.1,10.5c-0.1-0.2-0.4-0.3-0.6-0.5c-0.3-0.1-0.6-0.3-0.9-0.4
		c-0.2-0.1-0.4-0.2-0.7-0.3c-0.3-0.1-0.5-0.3-0.7-0.5c-0.2-0.2-0.4-0.4-0.6-0.7c-0.2-0.3-0.2-0.6-0.2-1c0-0.4,0.1-0.8,0.3-1.2
		c0.2-0.3,0.5-0.6,1-0.8C58,5,58.5,4.9,59,4.9c0.5,0,0.9,0.1,1.3,0.3c0.4,0.2,0.7,0.4,0.9,0.7c0.3,0.3,0.5,0.6,0.6,0.9l-1.1,0.6
		c-0.1-0.2-0.3-0.4-0.4-0.6c-0.2-0.2-0.4-0.3-0.6-0.4c-0.2-0.1-0.5-0.2-0.7-0.2c-0.4,0-0.7,0.1-0.9,0.3c-0.2,0.2-0.3,0.4-0.3,0.6
		c0,0.2,0.1,0.4,0.2,0.6c0.1,0.2,0.3,0.3,0.6,0.5c0.3,0.1,0.6,0.3,1.1,0.5C60,8.7,60.2,8.8,60.5,9s0.5,0.3,0.7,0.5
		c0.2,0.2,0.4,0.4,0.5,0.7c0.1,0.3,0.2,0.6,0.2,1c0,0.4-0.1,0.8-0.2,1.1c-0.2,0.3-0.4,0.6-0.6,0.8c-0.3,0.2-0.6,0.4-0.9,0.5
		c-0.3,0.1-0.7,0.2-1,0.2c-0.5,0-0.9-0.1-1.4-0.3c-0.4-0.2-0.8-0.5-1.1-0.8c-0.3-0.3-0.6-0.7-0.8-1.1l1.1-0.7
		c0.2,0.3,0.4,0.6,0.6,0.8c0.2,0.2,0.5,0.4,0.7,0.6c0.3,0.1,0.5,0.2,0.9,0.2c0.4,0,0.7-0.1,0.9-0.3s0.4-0.5,0.4-0.8
		C60.4,10.9,60.3,10.7,60.1,10.5z M49.7,4.1H51v9.4h-1.3V4.1z M43.2,9.2c0.2-0.4,0.6-0.8,1-1c0.4-0.2,0.9-0.4,1.5-0.4
		s1.1,0.1,1.5,0.3c0.4,0.2,0.7,0.5,1,1c0.2,0.4,0.3,0.9,0.3,1.5c0,0.1,0,0.1,0,0.2V11h-4.3c0,0.3,0.1,0.5,0.2,0.7
		c0.1,0.3,0.3,0.5,0.5,0.6c0.2,0.1,0.5,0.2,0.8,0.2c0.4,0,0.7-0.1,0.9-0.2c0.3-0.1,0.5-0.4,0.6-0.7l1.1,0.4
		c-0.3,0.5-0.7,0.9-1.1,1.1c-0.5,0.3-1,0.4-1.6,0.4c-0.6,0-1-0.1-1.5-0.4c-0.4-0.2-0.8-0.6-1-1c-0.2-0.4-0.3-0.9-0.3-1.5
		S42.9,9.6,43.2,9.2z M38.3,7.9l1.4,3.6l1.4-3.6h1.4l-2.9,6l-2.9-6H38.3z M34.9,9.3c-0.1-0.1-0.1-0.2-0.2-0.3
		C34.5,9,34.4,9,34.3,8.9c-0.2,0-0.3,0-0.5,0c-0.3,0-0.5,0-0.7,0.1c-0.2,0.1-0.4,0.1-0.6,0.2c-0.2,0.1-0.3,0.2-0.4,0.2l-0.5-0.9
		c0.3-0.1,0.6-0.3,1-0.4c0.4-0.2,0.8-0.2,1.4-0.2c0.5,0,0.8,0.1,1.2,0.2c0.3,0.1,0.6,0.3,0.8,0.6c0.2,0.3,0.3,0.6,0.3,0.9v3.9H35
		v-0.8c0,0.1-0.1,0.1-0.1,0.2c-0.2,0.2-0.5,0.4-0.8,0.5c-0.3,0.1-0.6,0.2-0.9,0.2c-0.3,0-0.7-0.1-1-0.2c-0.3-0.1-0.5-0.3-0.7-0.6
		c-0.2-0.3-0.3-0.6-0.3-1c0-0.5,0.2-1,0.6-1.3c0.4-0.3,0.9-0.5,1.6-0.5c0.4,0,0.7,0,1,0.1c0.3,0.1,0.5,0.2,0.6,0.3V9.8
		C35,9.6,35,9.5,34.9,9.3z M25.3,5.1h2.5c0.6,0,1.1,0.1,1.6,0.3s0.8,0.5,1,0.9c0.3,0.4,0.4,0.8,0.4,1.4c0,0.5-0.1,1-0.4,1.4
		c-0.3,0.4-0.6,0.7-1,0.9c-0.5,0.2-1,0.3-1.6,0.3h-1.1v3.2h-1.4V5.1z M16.5,7.9l1.5,3.6l1.4-3.6h1.4l-3.6,8.2h-1.4l1.5-3.3L15,7.9
		H16.5z M8.9,4.1h1.3v4.8c0.2-0.3,0.4-0.5,0.7-0.7c0.4-0.2,0.8-0.3,1.2-0.3c0.5,0,0.9,0.1,1.3,0.3c0.4,0.2,0.7,0.6,1,1
		c0.3,0.4,0.4,0.9,0.4,1.5c0,0.6-0.1,1.1-0.4,1.5c-0.2,0.4-0.6,0.8-1,1c-0.4,0.2-0.9,0.3-1.3,0.3c-0.5,0-0.9-0.1-1.2-0.4
		c-0.3-0.2-0.5-0.4-0.7-0.7v0.9H8.9V4.1z"/>
</g>
</svg>
